<svg xmlns="http://www.w3.org/2000/svg" width="1122" height="1402" viewBox="0 0 1122 1402" preserveAspectRatio="xMidYMid meet">
<defs>
<style>@import url('https://fonts.googleapis.com/css2?family=Anton&amp;family=Oswald:wght@500;600;700&amp;family=Yellowtail&amp;family=Archivo:wght@600;800&amp;display=swap');
.d{font-family:'Anton','Haettenschweiler','Impact',sans-serif;font-weight:400}
.u{font-family:'Oswald','Arial Narrow',sans-serif;text-transform:uppercase}
.s{font-family:'Yellowtail','Brush Script MT',cursive}
.a{font-family:'Archivo','Helvetica Neue',sans-serif}</style>
<linearGradient id="sweat" x1="0" y1="0" x2="1" y2="1"><stop offset="0" stop-color="#E0218A"/><stop offset="1" stop-color="#6E4B9E"/></linearGradient>
<linearGradient id="grape" x1="0" y1="0" x2="1" y2="1"><stop offset="0" stop-color="#6E4B9E"/><stop offset="1" stop-color="#3d2960"/></linearGradient>
<linearGradient id="sky" x1="0" y1="0" x2="1" y2="1"><stop offset="0" stop-color="#6FB5DC"/><stop offset="1" stop-color="#3f7fa8"/></linearGradient>
<linearGradient id="red" x1="0" y1="0" x2="1" y2="1"><stop offset="0" stop-color="#E4032E"/><stop offset="1" stop-color="#8f021e"/></linearGradient>
<radialGradient id="goldr" cx="0.35" cy="0.3" r="0.85"><stop offset="0" stop-color="#ffd979"/><stop offset="0.5" stop-color="#F4B223"/><stop offset="1" stop-color="#b9820c"/></radialGradient>
<pattern id="ht" width="12" height="12" patternUnits="userSpaceOnUse"><circle cx="3" cy="3" r="1.3" fill="#ffffff" opacity="0.5"/></pattern>
<filter id="grain"><feTurbulence type="fractalNoise" baseFrequency="0.8" numOctaves="2" stitchTiles="stitch" result="n"/><feColorMatrix in="n" type="matrix" values="0 0 0 0 0  0 0 0 0 0  0 0 0 0 0  0 0 0 0.55 0"/></filter>
</defs>
<rect width="1122" height="1402" fill="url(#grape)"/>
<rect width="1122" height="1402" fill="url(#ht)" opacity="0.12"/>
<text x="80" y="120" class="u" font-size="26" font-weight="700" fill="#ffffff" opacity="0.8" letter-spacing="5">DAILY PROOF · D</text>
<text x="78" y="320" class="d" font-size="150" fill="#ffffff">PROOFLE</text>
<text x="88" y="410" class="s" font-size="80" fill="#F4B223">don&#39;t spoil it</text>
<rect x="150" y="470" width="150" height="150" rx="10" fill="#F4B223" stroke="#161011" stroke-width="4"/><rect x="318" y="470" width="150" height="150" rx="10" fill="#6E4B9E" stroke="#161011" stroke-width="4"/><rect x="486" y="470" width="150" height="150" rx="10" fill="#F4B223" stroke="#161011" stroke-width="4"/><rect x="654" y="470" width="150" height="150" rx="10" fill="#E0218A" stroke="#161011" stroke-width="4"/><rect x="822" y="470" width="150" height="150" rx="10" fill="#6E4B9E" stroke="#161011" stroke-width="4"/><rect x="150" y="638" width="150" height="150" rx="10" fill="#6E4B9E" stroke="#161011" stroke-width="4"/><rect x="318" y="638" width="150" height="150" rx="10" fill="#F4B223" stroke="#161011" stroke-width="4"/><rect x="486" y="638" width="150" height="150" rx="10" fill="#E0218A" stroke="#161011" stroke-width="4"/><rect x="654" y="638" width="150" height="150" rx="10" fill="#F4B223" stroke="#161011" stroke-width="4"/><rect x="822" y="638" width="150" height="150" rx="10" fill="#6E4B9E" stroke="#161011" stroke-width="4"/><rect x="150" y="806" width="150" height="150" rx="10" fill="#F4B223" stroke="#161011" stroke-width="4"/><rect x="318" y="806" width="150" height="150" rx="10" fill="#F4B223" stroke="#161011" stroke-width="4"/><rect x="486" y="806" width="150" height="150" rx="10" fill="#6E4B9E" stroke="#161011" stroke-width="4"/><rect x="654" y="806" width="150" height="150" rx="10" fill="#F4B223" stroke="#161011" stroke-width="4"/><rect x="822" y="806" width="150" height="150" rx="10" fill="#F4B223" stroke="#161011" stroke-width="4"/>
<text x="80" y="1035" class="a" font-weight="800" font-size="36" fill="#ffffff">Prove you solved it —</text>
<text x="80" y="1083" class="a" font-weight="800" font-size="36" fill="#F4B223">without revealing the answer.</text>
<g><circle cx="80" cy="1240" r="11" fill="#ffffff" stroke="#161011" stroke-width="3"/><text x="80" y="1276" text-anchor="middle" class="u" font-size="16" font-weight="600" fill="#ffffff" letter-spacing="1.5">PLAY</text><line x1="101" y1="1240" x2="380" y2="1240" stroke="#ffffff" stroke-width="3" stroke-dasharray="2 11" stroke-linecap="round"/><circle cx="401" cy="1240" r="11" fill="#ffffff" stroke="#161011" stroke-width="3"/><text x="401" y="1276" text-anchor="middle" class="u" font-size="16" font-weight="600" fill="#ffffff" letter-spacing="1.5">PROVE</text><line x1="422" y1="1240" x2="700" y2="1240" stroke="#ffffff" stroke-width="3" stroke-dasharray="2 11" stroke-linecap="round"/><circle cx="721" cy="1240" r="11" fill="#ffffff" stroke="#161011" stroke-width="3"/><text x="721" y="1276" text-anchor="middle" class="u" font-size="16" font-weight="600" fill="#ffffff" letter-spacing="1.5">SUBMIT</text><line x1="742" y1="1240" x2="1016" y2="1240" stroke="#ffffff" stroke-width="3" stroke-dasharray="2 11" stroke-linecap="round"/><circle cx="1042" cy="1240" r="16" fill="#F4B223" stroke="#161011" stroke-width="3"/><path d="M1035 1240 l5 6 l9 -12" fill="none" stroke="#161011" stroke-width="3" stroke-linecap="round" stroke-linejoin="round"/><text x="1042" y="1276" text-anchor="middle" class="u" font-size="16" font-weight="600" fill="#ffffff" letter-spacing="1.5">STREAK</text></g>
<rect width="1122" height="1402" filter="url(#grain)" opacity="0.06"/>
<rect x="6" y="6" width="1110" height="1390" rx="26" fill="none" stroke="#161011" stroke-width="10"/>
</svg>
