<svg xmlns="http://www.w3.org/2000/svg" width="1200" height="620" viewBox="0 0 1200 620" preserveAspectRatio="xMidYMid meet">
<defs>
<style>@import url('https://fonts.googleapis.com/css2?family=Anton&amp;family=Oswald:wght@500;600;700&amp;family=Yellowtail&amp;family=Archivo:wght@600;800&amp;display=swap');
.d{font-family:'Anton','Haettenschweiler','Impact',sans-serif;font-weight:400}
.u{font-family:'Oswald','Arial Narrow',sans-serif;text-transform:uppercase}
.s{font-family:'Yellowtail','Brush Script MT',cursive}
.a{font-family:'Archivo','Helvetica Neue',sans-serif}</style>
<linearGradient id="sweat" x1="0" y1="0" x2="1" y2="1"><stop offset="0" stop-color="#E0218A"/><stop offset="1" stop-color="#6E4B9E"/></linearGradient>
<linearGradient id="grape" x1="0" y1="0" x2="1" y2="1"><stop offset="0" stop-color="#6E4B9E"/><stop offset="1" stop-color="#3d2960"/></linearGradient>
<linearGradient id="sky" x1="0" y1="0" x2="1" y2="1"><stop offset="0" stop-color="#6FB5DC"/><stop offset="1" stop-color="#3f7fa8"/></linearGradient>
<linearGradient id="red" x1="0" y1="0" x2="1" y2="1"><stop offset="0" stop-color="#E4032E"/><stop offset="1" stop-color="#8f021e"/></linearGradient>
<radialGradient id="goldr" cx="0.35" cy="0.3" r="0.85"><stop offset="0" stop-color="#ffd979"/><stop offset="0.5" stop-color="#F4B223"/><stop offset="1" stop-color="#b9820c"/></radialGradient>
<pattern id="ht" width="12" height="12" patternUnits="userSpaceOnUse"><circle cx="3" cy="3" r="1.3" fill="#ffffff" opacity="0.5"/></pattern>
<filter id="grain"><feTurbulence type="fractalNoise" baseFrequency="0.8" numOctaves="2" stitchTiles="stitch" result="n"/><feColorMatrix in="n" type="matrix" values="0 0 0 0 0  0 0 0 0 0  0 0 0 0 0  0 0 0 0.55 0"/></filter>
</defs>
<rect width="1200" height="620" fill="#F3EBDA"/>
<text x="600" y="96" text-anchor="middle" class="d" font-size="76" fill="#161011">MEDAL TIERS</text>
<text x="600" y="142" text-anchor="middle" class="u" font-size="21" font-weight="600" fill="#161011" opacity="0.6" letter-spacing="3">SOULBOUND · NON-TRANSFERABLE · TIER BY PROVING TIME</text>
<g>
<rect x="284" y="200" width="13" height="48" rx="3" fill="#E4032E" transform="rotate(-16 300 340)"/>
<rect x="303" y="200" width="13" height="48" rx="3" fill="#6FB5DC" transform="rotate(16 300 340)"/>
<circle cx="300" cy="340" r="102" fill="#c67b3f" stroke="#161011" stroke-width="8"/>
<circle cx="300" cy="340" r="75" fill="none" stroke="#ffffff" stroke-width="2" opacity="0.3"/>
</g>
<text x="300" y="502" text-anchor="middle" class="d" font-size="44" fill="#161011">BRONZE</text>
<text x="300" y="540" text-anchor="middle" class="u" font-size="19" font-weight="600" fill="#161011" opacity="0.6" letter-spacing="2">FINISHED</text>
<g>
<rect x="584" y="168" width="13" height="48" rx="3" fill="#E4032E" transform="rotate(-16 600 322)"/>
<rect x="603" y="168" width="13" height="48" rx="3" fill="#6FB5DC" transform="rotate(16 600 322)"/>
<circle cx="600" cy="322" r="116" fill="#cdd3d8" stroke="#161011" stroke-width="9"/>
<circle cx="600" cy="322" r="86" fill="none" stroke="#ffffff" stroke-width="2" opacity="0.3"/>
</g>
<text x="600" y="502" text-anchor="middle" class="d" font-size="44" fill="#161011">SILVER</text>
<text x="600" y="540" text-anchor="middle" class="u" font-size="19" font-weight="600" fill="#161011" opacity="0.6" letter-spacing="2">SUB-20 SECONDS</text>
<g>
<rect x="884" y="200" width="13" height="48" rx="3" fill="#E4032E" transform="rotate(-16 900 340)"/>
<rect x="903" y="200" width="13" height="48" rx="3" fill="#6FB5DC" transform="rotate(16 900 340)"/>
<circle cx="900" cy="340" r="102" fill="url(#goldr)" stroke="#161011" stroke-width="8"/>
<circle cx="900" cy="340" r="75" fill="none" stroke="#ffffff" stroke-width="2" opacity="0.3"/>
</g>
<text x="900" y="502" text-anchor="middle" class="d" font-size="44" fill="#161011">GOLD</text>
<text x="900" y="540" text-anchor="middle" class="u" font-size="19" font-weight="600" fill="#161011" opacity="0.6" letter-spacing="2">FLAGSHIP PACE</text>
<rect width="1200" height="620" filter="url(#grain)" opacity="0.06"/>
<rect x="6" y="6" width="1188" height="608" rx="26" fill="none" stroke="#161011" stroke-width="10"/>
</svg>
