<svg xmlns="http://www.w3.org/2000/svg" width="1586" height="992" viewBox="0 0 1586 992" preserveAspectRatio="xMidYMid meet">
<defs>
<style>@import url('https://fonts.googleapis.com/css2?family=Anton&amp;family=Oswald:wght@500;600;700&amp;family=Yellowtail&amp;family=Archivo:wght@600;800&amp;display=swap');
.d{font-family:'Anton','Haettenschweiler','Impact',sans-serif;font-weight:400}
.u{font-family:'Oswald','Arial Narrow',sans-serif;text-transform:uppercase}
.s{font-family:'Yellowtail','Brush Script MT',cursive}
.a{font-family:'Archivo','Helvetica Neue',sans-serif}</style>
<linearGradient id="sweat" x1="0" y1="0" x2="1" y2="1"><stop offset="0" stop-color="#E0218A"/><stop offset="1" stop-color="#6E4B9E"/></linearGradient>
<linearGradient id="grape" x1="0" y1="0" x2="1" y2="1"><stop offset="0" stop-color="#6E4B9E"/><stop offset="1" stop-color="#3d2960"/></linearGradient>
<linearGradient id="sky" x1="0" y1="0" x2="1" y2="1"><stop offset="0" stop-color="#6FB5DC"/><stop offset="1" stop-color="#3f7fa8"/></linearGradient>
<linearGradient id="red" x1="0" y1="0" x2="1" y2="1"><stop offset="0" stop-color="#E4032E"/><stop offset="1" stop-color="#8f021e"/></linearGradient>
<radialGradient id="goldr" cx="0.35" cy="0.3" r="0.85"><stop offset="0" stop-color="#ffd979"/><stop offset="0.5" stop-color="#F4B223"/><stop offset="1" stop-color="#b9820c"/></radialGradient>
<pattern id="ht" width="12" height="12" patternUnits="userSpaceOnUse"><circle cx="3" cy="3" r="1.3" fill="#ffffff" opacity="0.5"/></pattern>
<filter id="grain"><feTurbulence type="fractalNoise" baseFrequency="0.8" numOctaves="2" stitchTiles="stitch" result="n"/><feColorMatrix in="n" type="matrix" values="0 0 0 0 0  0 0 0 0 0  0 0 0 0 0  0 0 0 0.55 0"/></filter>
</defs>
<rect width="1586" height="992" fill="url(#sweat)"/>
<rect width="1586" height="992" fill="url(#ht)" opacity="0.14"/>
<rect x="90" y="86" width="470" height="46" rx="6" fill="#F4B223"/>
<text x="112" y="118" class="u" font-size="22" font-weight="700" fill="#161011" letter-spacing="3">FIRST 1,000 MOBILE PROVERS</text>
<text x="1496" y="116" text-anchor="end" class="u" font-size="24" font-weight="600" fill="#ffffff" opacity="0.85" letter-spacing="4">POCKET PROVER · A</text>
<text x="88" y="470" class="d" font-size="250" fill="#ffffff">PROVE</text>
<text x="88" y="730" class="d" font-size="250" fill="#ffffff">IT<tspan fill="#F4B223">.</tspan></text>
<text x="98" y="828" class="s" font-size="92" fill="#F4B223">on your own phone</text>
<g>
<rect x="1314" y="279" width="13" height="48" rx="3" fill="#E4032E" transform="rotate(-16 1330 432)"/>
<rect x="1333" y="279" width="13" height="48" rx="3" fill="#6FB5DC" transform="rotate(16 1330 432)"/>
<circle cx="1330" cy="432" r="115" fill="url(#goldr)" stroke="#ffffff" stroke-width="9"/>
<circle cx="1330" cy="432" r="85" fill="none" stroke="#161011" stroke-width="2" opacity="0.3"/>
<path d="M1298 434 l23 25 l48 -58" fill="none" stroke="#161011" stroke-width="13" stroke-linecap="round" stroke-linejoin="round"/></g>
<text x="1330" y="590" text-anchor="middle" class="u" font-size="22" font-weight="700" fill="#ffffff" letter-spacing="3">≈ 20 SECONDS</text>
<g><circle cx="90" cy="905" r="11" fill="#ffffff" stroke="#161011" stroke-width="3"/><text x="90" y="941" text-anchor="middle" class="u" font-size="16" font-weight="600" fill="#ffffff" letter-spacing="1.5">TAP</text><line x1="111" y1="905" x2="462" y2="905" stroke="#ffffff" stroke-width="3" stroke-dasharray="2 11" stroke-linecap="round"/><circle cx="483" cy="905" r="11" fill="#ffffff" stroke="#161011" stroke-width="3"/><text x="483" y="941" text-anchor="middle" class="u" font-size="16" font-weight="600" fill="#ffffff" letter-spacing="1.5">PROVE · ON-DEVICE</text><line x1="504" y1="905" x2="856" y2="905" stroke="#ffffff" stroke-width="3" stroke-dasharray="2 11" stroke-linecap="round"/><circle cx="877" cy="905" r="11" fill="#ffffff" stroke="#161011" stroke-width="3"/><text x="877" y="941" text-anchor="middle" class="u" font-size="16" font-weight="600" fill="#ffffff" letter-spacing="1.5">SUBMIT · SEPOLIA</text><line x1="898" y1="905" x2="1244" y2="905" stroke="#ffffff" stroke-width="3" stroke-dasharray="2 11" stroke-linecap="round"/><circle cx="1270" cy="905" r="16" fill="#F4B223" stroke="#161011" stroke-width="3"/><path d="M1263 905 l5 6 l9 -12" fill="none" stroke="#161011" stroke-width="3" stroke-linecap="round" stroke-linejoin="round"/><text x="1270" y="941" text-anchor="middle" class="u" font-size="16" font-weight="600" fill="#ffffff" letter-spacing="1.5">MEDAL</text></g>
<rect width="1586" height="992" filter="url(#grain)" opacity="0.06"/>
<rect x="6" y="6" width="1574" height="980" rx="26" fill="none" stroke="#161011" stroke-width="10"/>
</svg>
