<svg xmlns="http://www.w3.org/2000/svg" width="1200" height="630" viewBox="0 0 1200 630" preserveAspectRatio="xMidYMid meet">
<defs>
<style>@import url('https://fonts.googleapis.com/css2?family=Anton&amp;family=Oswald:wght@500;600;700&amp;family=Yellowtail&amp;family=Archivo:wght@600;800&amp;display=swap');
.d{font-family:'Anton','Haettenschweiler','Impact',sans-serif;font-weight:400}
.u{font-family:'Oswald','Arial Narrow',sans-serif;text-transform:uppercase}
.s{font-family:'Yellowtail','Brush Script MT',cursive}
.a{font-family:'Archivo','Helvetica Neue',sans-serif}</style>
<linearGradient id="sweat" x1="0" y1="0" x2="1" y2="1"><stop offset="0" stop-color="#E0218A"/><stop offset="1" stop-color="#6E4B9E"/></linearGradient>
<linearGradient id="grape" x1="0" y1="0" x2="1" y2="1"><stop offset="0" stop-color="#6E4B9E"/><stop offset="1" stop-color="#3d2960"/></linearGradient>
<linearGradient id="sky" x1="0" y1="0" x2="1" y2="1"><stop offset="0" stop-color="#6FB5DC"/><stop offset="1" stop-color="#3f7fa8"/></linearGradient>
<linearGradient id="red" x1="0" y1="0" x2="1" y2="1"><stop offset="0" stop-color="#E4032E"/><stop offset="1" stop-color="#8f021e"/></linearGradient>
<radialGradient id="goldr" cx="0.35" cy="0.3" r="0.85"><stop offset="0" stop-color="#ffd979"/><stop offset="0.5" stop-color="#F4B223"/><stop offset="1" stop-color="#b9820c"/></radialGradient>
<pattern id="ht" width="12" height="12" patternUnits="userSpaceOnUse"><circle cx="3" cy="3" r="1.3" fill="#ffffff" opacity="0.5"/></pattern>
<filter id="grain"><feTurbulence type="fractalNoise" baseFrequency="0.8" numOctaves="2" stitchTiles="stitch" result="n"/><feColorMatrix in="n" type="matrix" values="0 0 0 0 0  0 0 0 0 0  0 0 0 0 0  0 0 0 0.55 0"/></filter>
</defs>
<rect width="1200" height="630" fill="url(#sky)"/>
<rect width="1200" height="630" fill="url(#ht)" opacity="0.12"/>
<text x="70" y="88" class="u" font-size="24" font-weight="700" fill="#161011" opacity="0.72" letter-spacing="4">PROVER RELAY · E</text>
<text x="68" y="212" class="d" font-size="96" fill="#ffffff">PROVER RELAY</text>
<rect x="70" y="305" width="40" height="80" rx="8" fill="#ffffff" opacity="0.92" stroke="#161011" stroke-width="3"/><rect x="126" y="315" width="40" height="80" rx="8" fill="#ffffff" opacity="0.92" stroke="#161011" stroke-width="3"/><rect x="182" y="305" width="40" height="80" rx="8" fill="#ffffff" opacity="0.92" stroke="#161011" stroke-width="3"/><rect x="238" y="315" width="40" height="80" rx="8" fill="#ffffff" opacity="0.92" stroke="#161011" stroke-width="3"/><rect x="294" y="305" width="40" height="80" rx="8" fill="#ffffff" opacity="0.92" stroke="#161011" stroke-width="3"/>
<line x1="352" y1="345" x2="466" y2="345" stroke="#161011" stroke-width="5" stroke-dasharray="2 12" stroke-linecap="round"/>
<rect x="482" y="295" width="64" height="104" rx="12" fill="#F4B223" stroke="#161011" stroke-width="4"/>
<text x="514" y="365" text-anchor="middle" class="d" font-size="56" fill="#161011">P</text>
<line x1="562" y1="345" x2="686" y2="345" stroke="#161011" stroke-width="5" stroke-dasharray="2 12" stroke-linecap="round"/>
<g>
<rect x="732" y="257" width="13" height="48" rx="3" fill="#E4032E" transform="rotate(-16 748 347)"/>
<rect x="751" y="257" width="13" height="48" rx="3" fill="#6FB5DC" transform="rotate(16 748 347)"/>
<circle cx="748" cy="347" r="52" fill="url(#goldr)" stroke="#ffffff" stroke-width="4"/>
<circle cx="748" cy="347" r="38" fill="none" stroke="#161011" stroke-width="2" opacity="0.3"/>
<path d="M733 348 l10 11 l22 -26" fill="none" stroke="#161011" stroke-width="6" stroke-linecap="round" stroke-linejoin="round"/></g>
<text x="70" y="474" class="a" font-weight="800" font-size="30" fill="#ffffff">Capable phones prove for the crowd.</text>
<text x="70" y="516" class="u" font-size="18" font-weight="600" fill="#161011" opacity="0.75" letter-spacing="2">PUBLIC-WITNESS PROOFS ONLY · NOTHING FARMABLE</text>
<rect width="1200" height="630" filter="url(#grain)" opacity="0.06"/>
<rect x="6" y="6" width="1188" height="618" rx="26" fill="none" stroke="#161011" stroke-width="10"/>
</svg>
